<mxfile host="app.diagrams.net" modified="2024-02-03T12:43:58.216Z" agent="Mozilla/5.0 (Windows NT 10.0; Win64; x64) AppleWebKit/537.36 (KHTML, like Gecko) Chrome/121.0.0.0 Safari/537.36" etag="hePXi3unOExcumUcPjkf" version="23.1.1" type="device">
  <diagram name="Page-1" id="BP-d_5ARO_oMn7KdaGJ5">
    <mxGraphModel dx="2074" dy="1098" grid="1" gridSize="10" guides="1" tooltips="1" connect="1" arrows="1" fold="1" page="1" pageScale="1" pageWidth="1654" pageHeight="1169" math="0" shadow="0">
      <root>
        <mxCell id="0" />
        <mxCell id="1" parent="0" />
        <mxCell id="srBStGRikLigA-C8zkcN-18" value="utilisateurs" style="swimlane;childLayout=stackLayout;horizontal=1;startSize=50;horizontalStack=0;rounded=1;fontSize=14;fontStyle=0;strokeWidth=2;resizeParent=0;resizeLast=1;shadow=0;dashed=0;align=center;arcSize=4;whiteSpace=wrap;html=1;" vertex="1" parent="1">
          <mxGeometry x="290" y="170" width="110" height="170" as="geometry" />
        </mxCell>
        <mxCell id="srBStGRikLigA-C8zkcN-19" value="&lt;font style=&quot;font-size: 15px;&quot;&gt;&lt;u&gt;id&lt;/u&gt;&lt;br&gt;Nom&lt;br&gt;Prenom&lt;br&gt;Email&lt;br&gt;Mot_de_passe&lt;br&gt;&lt;/font&gt;" style="align=left;strokeColor=none;fillColor=none;spacingLeft=4;fontSize=12;verticalAlign=top;resizable=0;rotatable=0;part=1;html=1;" vertex="1" parent="srBStGRikLigA-C8zkcN-18">
          <mxGeometry y="50" width="110" height="120" as="geometry" />
        </mxCell>
        <mxCell id="srBStGRikLigA-C8zkcN-22" value="favoris" style="swimlane;childLayout=stackLayout;horizontal=1;startSize=50;horizontalStack=0;rounded=1;fontSize=14;fontStyle=0;strokeWidth=2;resizeParent=0;resizeLast=1;shadow=0;dashed=0;align=center;arcSize=4;whiteSpace=wrap;html=1;" vertex="1" parent="1">
          <mxGeometry x="530" y="195" width="110" height="120" as="geometry" />
        </mxCell>
        <mxCell id="srBStGRikLigA-C8zkcN-23" value="&lt;font style=&quot;font-size: 15px;&quot;&gt;&lt;u&gt;id_Films&lt;/u&gt;&lt;/font&gt;&lt;span style=&quot;font-size: 15px;&quot;&gt;&lt;u&gt;&lt;br&gt;id_Utilisateurs&lt;/u&gt;&lt;br&gt;Role&lt;br&gt;&lt;/span&gt;" style="align=left;strokeColor=none;fillColor=none;spacingLeft=4;fontSize=12;verticalAlign=top;resizable=0;rotatable=0;part=1;html=1;" vertex="1" parent="srBStGRikLigA-C8zkcN-22">
          <mxGeometry y="50" width="110" height="70" as="geometry" />
        </mxCell>
        <mxCell id="srBStGRikLigA-C8zkcN-25" value="" style="endArrow=classic;html=1;rounded=0;entryX=0.988;entryY=0.122;entryDx=0;entryDy=0;entryPerimeter=0;exitX=0;exitY=0.5;exitDx=0;exitDy=0;" edge="1" parent="1" source="srBStGRikLigA-C8zkcN-23" target="srBStGRikLigA-C8zkcN-19">
          <mxGeometry width="50" height="50" relative="1" as="geometry">
            <mxPoint x="530" y="260" as="sourcePoint" />
            <mxPoint x="850" y="340" as="targetPoint" />
          </mxGeometry>
        </mxCell>
        <mxCell id="srBStGRikLigA-C8zkcN-26" value="films" style="swimlane;childLayout=stackLayout;horizontal=1;startSize=50;horizontalStack=0;rounded=1;fontSize=14;fontStyle=0;strokeWidth=2;resizeParent=0;resizeLast=1;shadow=0;dashed=0;align=center;arcSize=4;whiteSpace=wrap;html=1;" vertex="1" parent="1">
          <mxGeometry x="740" y="185" width="120" height="140" as="geometry" />
        </mxCell>
        <mxCell id="srBStGRikLigA-C8zkcN-27" value="&lt;span style=&quot;font-size: 15px;&quot;&gt;&lt;u&gt;id&lt;/u&gt;&lt;br&gt;Titre&lt;br&gt;Duree_du_film&lt;br&gt;Date_de_sortie&lt;br&gt;&lt;/span&gt;" style="align=left;strokeColor=none;fillColor=none;spacingLeft=4;fontSize=12;verticalAlign=top;resizable=0;rotatable=0;part=1;html=1;" vertex="1" parent="srBStGRikLigA-C8zkcN-26">
          <mxGeometry y="50" width="120" height="90" as="geometry" />
        </mxCell>
        <mxCell id="srBStGRikLigA-C8zkcN-31" value="" style="endArrow=classic;html=1;rounded=0;exitX=0.982;exitY=0.157;exitDx=0;exitDy=0;exitPerimeter=0;" edge="1" parent="1" source="srBStGRikLigA-C8zkcN-23">
          <mxGeometry width="50" height="50" relative="1" as="geometry">
            <mxPoint x="800" y="290" as="sourcePoint" />
            <mxPoint x="740" y="250" as="targetPoint" />
          </mxGeometry>
        </mxCell>
        <mxCell id="srBStGRikLigA-C8zkcN-32" value="Realiser" style="swimlane;childLayout=stackLayout;horizontal=1;startSize=50;horizontalStack=0;rounded=1;fontSize=14;fontStyle=0;strokeWidth=2;resizeParent=0;resizeLast=1;shadow=0;dashed=0;align=center;arcSize=4;whiteSpace=wrap;html=1;" vertex="1" parent="1">
          <mxGeometry x="730" y="400" width="130" height="110" as="geometry" />
        </mxCell>
        <mxCell id="srBStGRikLigA-C8zkcN-33" value="&lt;font style=&quot;font-size: 15px;&quot;&gt;&lt;u&gt;id_Films&lt;br&gt;id_Realisateurs&lt;/u&gt;&lt;/font&gt;" style="align=left;strokeColor=none;fillColor=none;spacingLeft=4;fontSize=12;verticalAlign=top;resizable=0;rotatable=0;part=1;html=1;" vertex="1" parent="srBStGRikLigA-C8zkcN-32">
          <mxGeometry y="50" width="130" height="60" as="geometry" />
        </mxCell>
        <mxCell id="srBStGRikLigA-C8zkcN-36" value="" style="endArrow=classic;html=1;rounded=0;exitX=0;exitY=0.25;exitDx=0;exitDy=0;entryX=-0.006;entryY=0.137;entryDx=0;entryDy=0;entryPerimeter=0;" edge="1" parent="1" source="srBStGRikLigA-C8zkcN-33" target="srBStGRikLigA-C8zkcN-27">
          <mxGeometry width="50" height="50" relative="1" as="geometry">
            <mxPoint x="800" y="390" as="sourcePoint" />
            <mxPoint x="850" y="340" as="targetPoint" />
            <Array as="points">
              <mxPoint x="660" y="400" />
            </Array>
          </mxGeometry>
        </mxCell>
        <mxCell id="srBStGRikLigA-C8zkcN-37" value="realisateurs" style="swimlane;childLayout=stackLayout;horizontal=1;startSize=50;horizontalStack=0;rounded=1;fontSize=14;fontStyle=0;strokeWidth=2;resizeParent=0;resizeLast=1;shadow=0;dashed=0;align=center;arcSize=4;whiteSpace=wrap;html=1;" vertex="1" parent="1">
          <mxGeometry x="745" y="585" width="100" height="120" as="geometry" />
        </mxCell>
        <mxCell id="srBStGRikLigA-C8zkcN-38" value="&lt;font style=&quot;font-size: 15px;&quot;&gt;&lt;u&gt;id&lt;/u&gt;&lt;br&gt;Nom&lt;br&gt;Prenom&lt;/font&gt;" style="align=left;strokeColor=none;fillColor=none;spacingLeft=4;fontSize=12;verticalAlign=top;resizable=0;rotatable=0;part=1;html=1;" vertex="1" parent="srBStGRikLigA-C8zkcN-37">
          <mxGeometry y="50" width="100" height="70" as="geometry" />
        </mxCell>
        <mxCell id="srBStGRikLigA-C8zkcN-40" value="" style="endArrow=classic;html=1;rounded=0;exitX=-0.005;exitY=0.633;exitDx=0;exitDy=0;exitPerimeter=0;entryX=0;entryY=0.25;entryDx=0;entryDy=0;" edge="1" parent="1" source="srBStGRikLigA-C8zkcN-33" target="srBStGRikLigA-C8zkcN-38">
          <mxGeometry width="50" height="50" relative="1" as="geometry">
            <mxPoint x="330" y="590" as="sourcePoint" />
            <mxPoint x="380" y="540" as="targetPoint" />
            <Array as="points">
              <mxPoint x="700" y="590" />
            </Array>
          </mxGeometry>
        </mxCell>
        <mxCell id="srBStGRikLigA-C8zkcN-41" value="jouer" style="swimlane;childLayout=stackLayout;horizontal=1;startSize=50;horizontalStack=0;rounded=1;fontSize=14;fontStyle=0;strokeWidth=2;resizeParent=0;resizeLast=1;shadow=0;dashed=0;align=center;arcSize=4;whiteSpace=wrap;html=1;" vertex="1" parent="1">
          <mxGeometry x="990" y="195" width="100" height="120" as="geometry" />
        </mxCell>
        <mxCell id="srBStGRikLigA-C8zkcN-42" value="&lt;span style=&quot;font-size: 15px;&quot;&gt;&lt;u&gt;id_Films&lt;/u&gt;&lt;br&gt;&lt;u&gt;id_Acteurs&lt;/u&gt;&lt;br&gt;Role&lt;br&gt;&lt;/span&gt;" style="align=left;strokeColor=none;fillColor=none;spacingLeft=4;fontSize=12;verticalAlign=top;resizable=0;rotatable=0;part=1;html=1;" vertex="1" parent="srBStGRikLigA-C8zkcN-41">
          <mxGeometry y="50" width="100" height="70" as="geometry" />
        </mxCell>
        <mxCell id="srBStGRikLigA-C8zkcN-43" value="" style="endArrow=classic;html=1;rounded=0;exitX=0;exitY=0.25;exitDx=0;exitDy=0;entryX=1.011;entryY=0.174;entryDx=0;entryDy=0;entryPerimeter=0;" edge="1" parent="1" source="srBStGRikLigA-C8zkcN-42" target="srBStGRikLigA-C8zkcN-27">
          <mxGeometry width="50" height="50" relative="1" as="geometry">
            <mxPoint x="1090" y="460" as="sourcePoint" />
            <mxPoint x="1140" y="410" as="targetPoint" />
          </mxGeometry>
        </mxCell>
        <mxCell id="srBStGRikLigA-C8zkcN-44" value="acteurs" style="swimlane;childLayout=stackLayout;horizontal=1;startSize=50;horizontalStack=0;rounded=1;fontSize=14;fontStyle=0;strokeWidth=2;resizeParent=0;resizeLast=1;shadow=0;dashed=0;align=center;arcSize=4;whiteSpace=wrap;html=1;" vertex="1" parent="1">
          <mxGeometry x="1190" y="177.5" width="150" height="155" as="geometry" />
        </mxCell>
        <mxCell id="srBStGRikLigA-C8zkcN-45" value="&lt;span style=&quot;font-size: 15px;&quot;&gt;&lt;u&gt;id&lt;/u&gt;&lt;br&gt;Nom&lt;br&gt;Prenom&lt;br&gt;Date_de_naissance&lt;br&gt;Sexe&lt;br&gt;&lt;/span&gt;" style="align=left;strokeColor=none;fillColor=none;spacingLeft=4;fontSize=12;verticalAlign=top;resizable=0;rotatable=0;part=1;html=1;" vertex="1" parent="srBStGRikLigA-C8zkcN-44">
          <mxGeometry y="50" width="150" height="105" as="geometry" />
        </mxCell>
        <mxCell id="srBStGRikLigA-C8zkcN-46" value="" style="endArrow=classic;html=1;rounded=0;exitX=1;exitY=0.5;exitDx=0;exitDy=0;entryX=0;entryY=0.183;entryDx=0;entryDy=0;entryPerimeter=0;" edge="1" parent="1" source="srBStGRikLigA-C8zkcN-42" target="srBStGRikLigA-C8zkcN-45">
          <mxGeometry width="50" height="50" relative="1" as="geometry">
            <mxPoint x="1130" y="450" as="sourcePoint" />
            <mxPoint x="1180" y="400" as="targetPoint" />
          </mxGeometry>
        </mxCell>
      </root>
    </mxGraphModel>
  </diagram>
</mxfile>
